<svg height="512" viewBox="0 0 512 512" width="512" xmlns="http://www.w3.org/2000/svg"><g><path d="m383.96 363.2-7.96-79.61a68.023 68.023 0 0 0 -34.95-58.98 28.035 28.035 0 0 0 4.14-36.42l-49.58-72.46a47.932 47.932 0 0 0 -31.61-20.21v-63.52a8 8 0 0 0 -8-8h-8a8 8 0 0 0 0 16v55.52a47.932 47.932 0 0 0 -31.61 20.21l-49.58 72.46a28.035 28.035 0 0 0 4.14 36.42 68.023 68.023 0 0 0 -34.95 58.98l-7.96 79.61a7.143 7.143 0 0 0 -.04.8 28.031 28.031 0 0 0 28 28h200a28.031 28.031 0 0 0 28-28 7.143 7.143 0 0 0 -.04-.8zm-50.78-163.72a11.974 11.974 0 0 1 -11.1 16.52h-29.43a39.72 39.72 0 0 0 3.35-16v-11.77a217.735 217.735 0 0 1 37.03 11.2c.05.02.1.03.15.05zm-103.59-74.71a31.988 31.988 0 0 1 52.82 0l36 52.61a213.565 213.565 0 0 0 -124.82 0zm50.41 60.81v14.42a24 24 0 0 1 -48 0v-14.42a194.682 194.682 0 0 1 48 0zm-101.18 13.9c.05-.02.1-.03.15-.05a217.735 217.735 0 0 1 37.03-11.2v11.77a39.72 39.72 0 0 0 3.35 16h-29.43a11.974 11.974 0 0 1 -11.1-16.52zm165.18 172.52a4 4 0 0 1 -4 4h-168a4 4 0 0 1 -4-4v-12h176zm-152-28v-76a4 4 0 0 1 4-4h120a4 4 0 0 1 4 4v76zm167.69 31.41a20.112 20.112 0 0 0 .31-3.41v-20a8 8 0 0 0 -8-8h-16v-76a20.02 20.02 0 0 0 -20-20h-120a20.02 20.02 0 0 0 -20 20v76h-16a8 8 0 0 0 -8 8v20a20.112 20.112 0 0 0 .31 3.41 12.011 12.011 0 0 1 -8.31-11.06l7.96-79.55a7.143 7.143 0 0 0 .04-.8 52.063 52.063 0 0 1 52-52h28.03a39.91 39.91 0 0 0 47.94 0h28.03a52.063 52.063 0 0 1 52 52 7.143 7.143 0 0 0 .04.8l7.96 79.55a12.011 12.011 0 0 1 -8.31 11.06z"/><path d="m256 280a24 24 0 1 0 24 24 24.028 24.028 0 0 0 -24-24zm0 32a8 8 0 1 1 8-8 8.009 8.009 0 0 1 -8 8z"/><path d="m16 136v56a8 8 0 0 0 16 0v-64a8 8 0 0 0 -8-8h-8a8 8 0 0 0 0 16z"/><path d="m112 120h-8a8 8 0 0 0 0 16v56a8 8 0 0 0 16 0v-64a8 8 0 0 0 -8-8z"/><path d="m136 136v56a8 8 0 0 0 16 0v-64a8 8 0 0 0 -8-8h-8a8 8 0 0 0 0 16z"/><path d="m112 216h-8a8 8 0 0 0 0 16v56a8 8 0 0 0 16 0v-64a8 8 0 0 0 -8-8z"/><path d="m80 216h-8a8 8 0 0 0 0 16v56a8 8 0 0 0 16 0v-64a8 8 0 0 0 -8-8z"/><path d="m80 120h-32a8 8 0 0 0 -8 8v64a8 8 0 0 0 8 8h32a8 8 0 0 0 8-8v-64a8 8 0 0 0 -8-8zm-8 64h-16v-48h16z"/><path d="m16 40v56a8 8 0 0 0 16 0v-64a8 8 0 0 0 -8-8h-8a8 8 0 0 0 0 16z"/><path d="m112 24h-8a8 8 0 0 0 0 16v56a8 8 0 0 0 16 0v-64a8 8 0 0 0 -8-8z"/><path d="m80 24h-32a8 8 0 0 0 -8 8v64a8 8 0 0 0 8 8h32a8 8 0 0 0 8-8v-64a8 8 0 0 0 -8-8zm-8 64h-16v-48h16z"/><path d="m24 312h-8a8 8 0 0 0 0 16v56a8 8 0 0 0 16 0v-64a8 8 0 0 0 -8-8z"/><path d="m112 312h-8a8 8 0 0 0 0 16v56a8 8 0 0 0 16 0v-64a8 8 0 0 0 -8-8z"/><path d="m80 312h-32a8 8 0 0 0 -8 8v64a8 8 0 0 0 8 8h32a8 8 0 0 0 8-8v-64a8 8 0 0 0 -8-8zm-8 64h-16v-48h16z"/><path d="m16 296h32a8 8 0 0 0 8-8v-64a8 8 0 0 0 -8-8h-32a8 8 0 0 0 -8 8v64a8 8 0 0 0 8 8zm8-64h16v48h-16z"/><path d="m136 104h32a8 8 0 0 0 8-8v-64a8 8 0 0 0 -8-8h-32a8 8 0 0 0 -8 8v64a8 8 0 0 0 8 8zm8-64h16v48h-16z"/><path d="m192 104h32a8 8 0 0 0 8-8v-64a8 8 0 0 0 -8-8h-32a8 8 0 0 0 -8 8v64a8 8 0 0 0 8 8zm8-64h16v48h-16z"/><path d="m280 40v56a8 8 0 0 0 16 0v-64a8 8 0 0 0 -8-8h-8a8 8 0 0 0 0 16z"/><path d="m376 24h-8a8 8 0 0 0 0 16v56a8 8 0 0 0 16 0v-64a8 8 0 0 0 -8-8z"/><path d="m496 24h-8a8 8 0 0 0 0 16v56a8 8 0 0 0 16 0v-64a8 8 0 0 0 -8-8z"/><path d="m464 24h-8a8 8 0 0 0 0 16v56a8 8 0 0 0 16 0v-64a8 8 0 0 0 -8-8z"/><path d="m312 104h32a8 8 0 0 0 8-8v-64a8 8 0 0 0 -8-8h-32a8 8 0 0 0 -8 8v64a8 8 0 0 0 8 8zm8-64h16v48h-16z"/><path d="m400 104h32a8 8 0 0 0 8-8v-64a8 8 0 0 0 -8-8h-32a8 8 0 0 0 -8 8v64a8 8 0 0 0 8 8zm8-64h16v48h-16z"/><path d="m24 408h-8a8 8 0 0 0 0 16v56a8 8 0 0 0 16 0v-64a8 8 0 0 0 -8-8z"/><path d="m112 408h-8a8 8 0 0 0 0 16v56a8 8 0 0 0 16 0v-64a8 8 0 0 0 -8-8z"/><path d="m80 408h-32a8 8 0 0 0 -8 8v64a8 8 0 0 0 8 8h32a8 8 0 0 0 8-8v-64a8 8 0 0 0 -8-8zm-8 64h-16v-48h16z"/><path d="m256 408h-8a8 8 0 0 0 0 16v56a8 8 0 0 0 16 0v-64a8 8 0 0 0 -8-8z"/><path d="m168 408h-32a8 8 0 0 0 -8 8v64a8 8 0 0 0 8 8h32a8 8 0 0 0 8-8v-64a8 8 0 0 0 -8-8zm-8 64h-16v-48h16z"/><path d="m224 408h-32a8 8 0 0 0 -8 8v64a8 8 0 0 0 8 8h32a8 8 0 0 0 8-8v-64a8 8 0 0 0 -8-8zm-8 64h-16v-48h16z"/><path d="m288 408h-8a8 8 0 0 0 0 16v56a8 8 0 0 0 16 0v-64a8 8 0 0 0 -8-8z"/><path d="m376 408h-8a8 8 0 0 0 0 16v56a8 8 0 0 0 16 0v-64a8 8 0 0 0 -8-8z"/><path d="m496 408h-8a8 8 0 0 0 0 16v56a8 8 0 0 0 16 0v-64a8 8 0 0 0 -8-8z"/><path d="m464 408h-8a8 8 0 0 0 0 16v56a8 8 0 0 0 16 0v-64a8 8 0 0 0 -8-8z"/><path d="m344 408h-32a8 8 0 0 0 -8 8v64a8 8 0 0 0 8 8h32a8 8 0 0 0 8-8v-64a8 8 0 0 0 -8-8zm-8 64h-16v-48h16z"/><path d="m432 408h-32a8 8 0 0 0 -8 8v64a8 8 0 0 0 8 8h32a8 8 0 0 0 8-8v-64a8 8 0 0 0 -8-8zm-8 64h-16v-48h16z"/><path d="m400 136v56a8 8 0 0 0 16 0v-64a8 8 0 0 0 -8-8h-8a8 8 0 0 0 0 16z"/><path d="m376 120h-8a8 8 0 0 0 0 16v56a8 8 0 0 0 16 0v-64a8 8 0 0 0 -8-8z"/><path d="m496 120h-8a8 8 0 0 0 0 16v56a8 8 0 0 0 16 0v-64a8 8 0 0 0 -8-8z"/><path d="m496 216h-8a8 8 0 0 0 0 16v56a8 8 0 0 0 16 0v-64a8 8 0 0 0 -8-8z"/><path d="m464 216h-8a8 8 0 0 0 0 16v56a8 8 0 0 0 16 0v-64a8 8 0 0 0 -8-8z"/><path d="m464 120h-32a8 8 0 0 0 -8 8v64a8 8 0 0 0 8 8h32a8 8 0 0 0 8-8v-64a8 8 0 0 0 -8-8zm-8 64h-16v-48h16z"/><path d="m400 328v56a8 8 0 0 0 16 0v-64a8 8 0 0 0 -8-8h-8a8 8 0 0 0 0 16z"/><path d="m496 312h-8a8 8 0 0 0 0 16v56a8 8 0 0 0 16 0v-64a8 8 0 0 0 -8-8z"/><path d="m464 312h-32a8 8 0 0 0 -8 8v64a8 8 0 0 0 8 8h32a8 8 0 0 0 8-8v-64a8 8 0 0 0 -8-8zm-8 64h-16v-48h16z"/><path d="m400 296h32a8 8 0 0 0 8-8v-64a8 8 0 0 0 -8-8h-32a8 8 0 0 0 -8 8v64a8 8 0 0 0 8 8zm8-64h16v48h-16z"/></g></svg>