<?xml version="1.0" encoding="UTF-8" standalone="no"?>
<!DOCTYPE svg PUBLIC "-//W3C//DTD SVG 1.1//EN" "http://www.w3.org/Graphics/SVG/1.1/DTD/svg11.dtd">
<svg version="1.1" xmlns="http://www.w3.org/2000/svg" xmlns:xlink="http://www.w3.org/1999/xlink" preserveAspectRatio="xMidYMid meet" viewBox="0 0 640 640" width="640" height="640"><defs><path d="M157.35 417.02C157.35 455.44 183.39 486.69 215.41 486.69C247.43 486.69 273.48 455.44 273.48 417.02C273.48 378.59 247.43 347.34 215.41 347.34C183.39 347.34 157.35 378.59 157.35 417.02ZM180.57 417.02C180.57 391.4 196.2 370.56 215.41 370.56C234.62 370.56 250.25 391.4 250.25 417.02C250.25 442.63 234.63 463.47 215.41 463.47C196.2 463.47 180.57 442.63 180.57 417.02Z" id="a1nXD4eGH8"></path><path d="M378 417.02C378 455.44 404.04 486.69 436.06 486.69C468.08 486.69 494.13 455.44 494.13 417.02C494.13 378.59 468.08 347.34 436.06 347.34C404.04 347.34 378 378.59 378 417.02ZM401.22 417.02C401.22 391.4 416.85 370.56 436.06 370.56C455.27 370.56 470.9 391.4 470.9 417.02C470.9 442.63 455.28 463.47 436.06 463.47C416.85 463.47 401.22 442.63 401.22 417.02Z" id="bzOVzLTha"></path><path d="M452.05 289.28C441.3 289.47 430.53 289.91 419.77 290.34C409.97 290.73 400.17 291.13 390.38 291.33C388.67 291.36 375.06 291.65 373.36 291.69C343.83 292.3 313.23 292.93 283.35 292.81C269.72 292.76 256.07 292.24 242.45 291.73C223.89 291.04 204.73 290.29 185.71 290.77C159.31 291.41 137.1 299.84 119.68 315.84C119.68 315.84 119.68 315.84 119.68 315.84C90.76 342.42 78.8 377.68 83.13 423.64C89.42 490.33 116.34 524.44 176.06 541.33C226.26 555.54 276.68 556.82 319.15 556.21C320.57 556.22 331.88 556.27 333.3 556.28C338.07 556.32 342.84 556.36 347.62 556.36C353.5 556.36 359.39 556.3 365.28 556.12C407.03 554.78 443.62 548.55 477.14 537.03C513.94 524.39 538.44 500.26 549.94 465.32C558.72 438.6 561.3 413.3 557.83 387.95C552.17 346.72 516.2 289.27 453.78 289.27C453.21 289.27 452.62 289.27 452.05 289.28ZM469.6 515.07C438.3 525.81 403.94 531.65 364.55 532.9C354.2 533.23 343.85 533.14 333.51 533.07C332.06 533.06 320.45 532.99 319 532.98C278.06 533.57 229.72 532.38 182.4 518.98C132.26 504.8 111.63 478.36 106.26 421.46C102.66 383.23 112.19 354.28 135.4 332.95C148.56 320.87 165.66 314.5 186.26 313.98C204.57 313.57 223.38 314.25 241.56 314.94C255.45 315.46 269.36 315.98 283.24 316.04C313.53 316.18 344.18 315.53 373.85 314.9C375.55 314.87 389.14 314.59 390.84 314.55C400.79 314.34 410.75 313.94 420.7 313.54C431.28 313.11 441.86 312.68 452.44 312.51C452.85 312.5 453.27 312.5 453.69 312.5C501.65 312.5 530.42 359.21 534.8 391.13C537.8 412.89 535.53 434.8 527.89 458.07C518.65 486.14 499.59 504.78 469.6 515.07Z" id="d2ghObMRmn"></path><path d="M593.25 190.27C595.3 168.87 592.37 147.32 589.54 126.5C589.52 126.36 589.37 125.27 589.36 125.13C585.57 97.21 578.28 70.57 567.67 45.94C567.42 45.36 566.16 42.44 563.9 37.19C553.61 39.37 547.89 40.59 546.75 40.83C522.93 45.84 498.28 51.02 475.83 63.99C460.91 72.61 446.07 81.79 431.73 90.66C422.13 96.61 412.52 102.56 402.86 108.35C402.34 108.66 401.29 108.92 401 108.92C401 108.92 401 108.92 401 108.92C349.06 99.85 295.11 99.76 240.62 108.65C239.95 108.77 237.76 108.4 236.01 107.36C230.02 103.77 224.18 99.92 218.35 96.08C211.58 91.6 204.8 87.14 197.83 83.07C164.59 63.56 127.87 44.73 84.57 39.21C84 39.13 81.18 38.77 76.09 38.11C73.38 43.99 71.87 47.25 71.57 47.9C70.72 49.69 70 51.24 69.41 52.84C56.99 86.33 49.5 121.45 47.07 158.35C46.22 171.13 45.35 184.36 47.23 197.56C47.86 201.94 47.34 202.82 45.63 204.96C29.99 224.46 18.8 244.85 11.43 267.3C-0.96 305 -3.21 346.79 4.35 398.81C10.63 442.32 21.3 474.07 38.93 501.73C76.01 559.89 133.25 592.65 209.07 599.11C246.96 602.34 285.42 602.83 323.11 602.83C331.22 602.83 339.29 602.8 347.31 602.78C357.89 602.75 368.48 602.72 379.04 602.75C427.58 602.77 466.3 596.45 501.5 582.67C564.17 558.15 605.83 512.49 625.33 446.93C636.2 410.41 641.07 371.57 639.79 331.49C638.37 286.82 625.76 247.81 602.33 215.54C595.42 206.03 592.26 200.43 593.25 190.27ZM493.05 561.04C460.65 573.74 424.88 579.74 379.1 579.52C368.5 579.5 357.88 579.52 347.27 579.55C302.43 579.68 256.07 579.81 211.06 575.97C141.87 570.08 91.96 541.71 58.52 489.25C42.74 464.5 33.12 435.59 27.34 395.47C20.21 346.47 22.11 309.18 33.49 274.55C39.98 254.79 49.88 236.78 63.74 219.48C69.82 211.9 71.69 204.6 70.21 194.28C68.67 183.46 69.47 171.47 70.31 158.73C72.44 126.13 79.14 94.1 90.21 63.54C125.81 69.83 157.25 86.17 186.05 103.08C192.67 106.96 199.11 111.21 205.53 115.43C211.65 119.48 217.78 123.51 224.08 127.27C230.35 131.01 237.92 132.61 244.36 131.54C296.25 123.08 347.6 123.15 397.03 131.79C402.72 132.75 409.51 131.4 414.77 128.26C424.54 122.39 434.23 116.4 443.92 110.39C458.35 101.46 472.76 92.55 487.43 84.08C506.23 73.22 527.45 68.61 549.92 63.87C557.76 84.08 563.26 105.69 566.33 128.22C566.34 128.36 566.49 129.45 566.51 129.59C569.16 149.11 571.9 169.3 570.1 188.01C568.31 206.52 575.43 218.04 583.51 229.16C604.45 258 615.26 291.71 616.56 332.19C617.78 369.82 613.24 406.19 603.08 440.31C585.48 499.46 549.49 538.95 493.05 561.04Z" id="am8trGRd"></path></defs><g><g><g><use xlink:href="#a1nXD4eGH8" opacity="1" fill="#ffffff" fill-opacity="1"></use><g><use xlink:href="#a1nXD4eGH8" opacity="1" fill-opacity="0" stroke="#000000" stroke-width="1" stroke-opacity="0"></use></g></g><g><use xlink:href="#bzOVzLTha" opacity="1" fill="#ffffff" fill-opacity="1"></use><g><use xlink:href="#bzOVzLTha" opacity="1" fill-opacity="0" stroke="#000000" stroke-width="1" stroke-opacity="0"></use></g></g><g><use xlink:href="#d2ghObMRmn" opacity="1" fill="#ffffff" fill-opacity="1"></use><g><use xlink:href="#d2ghObMRmn" opacity="1" fill-opacity="0" stroke="#000000" stroke-width="1" stroke-opacity="0"></use></g></g><g><use xlink:href="#am8trGRd" opacity="1" fill="#ffffff" fill-opacity="1"></use><g><use xlink:href="#am8trGRd" opacity="1" fill-opacity="0" stroke="#000000" stroke-width="1" stroke-opacity="0"></use></g></g></g></g></svg>