<?xml version="1.0" encoding="UTF-8" standalone="no"?>
<!DOCTYPE svg PUBLIC "-//W3C//DTD SVG 1.1//EN" "http://www.w3.org/Graphics/SVG/1.1/DTD/svg11.dtd">
<svg version="1.1" xmlns="http://www.w3.org/2000/svg" xmlns:xlink="http://www.w3.org/1999/xlink" preserveAspectRatio="xMidYMid meet" viewBox="0 0 640 640" width="640" height="640"><defs><path d="M25.6 29.87C8.53 46.93 0 68.27 0 90.67C0 114.13 9.6 135.47 25.6 151.47C41.6 167.47 64 177.07 85.33 176C85.33 176 86.4 176 87.47 176C108.8 176 129.07 167.47 145.07 151.47C161.07 135.47 170.67 114.13 170.67 90.67C171.73 68.27 162.13 46.93 146.13 30.93C130.13 13.87 108.8 5.33 86.4 5.33C62.93 5.33 41.6 13.87 25.6 29.87ZM85.33 154.67C69.33 154.67 52.27 148.27 40.53 136.53C27.73 124.8 21.33 107.73 21.33 90.67C21.33 73.6 27.73 57.6 40.53 44.8C52.27 33.07 68.27 26.67 86.4 26.67C102.4 26.67 118.4 33.07 130.13 44.8C142.93 57.6 149.33 73.6 149.33 90.67C149.33 107.73 142.93 124.8 130.13 136.53C118.4 148.27 102.4 155.73 85.33 154.67Z" id="hggI72DFn"></path><path d="M41.6 197.33C24.53 197.33 10.67 211.2 10.67 229.33C10.67 266.67 10.67 565.33 10.67 602.67C10.67 619.73 25.6 634.67 42.67 634.67C51.2 634.67 119.47 634.67 128 634.67C145.07 634.67 160 619.73 160 603.73C160 566.29 160 266.77 160 229.33C160 212.27 145.07 197.33 128 197.33C110.72 197.33 50.24 197.33 41.6 197.33ZM128 613.33C119.47 613.33 51.2 613.33 42.67 613.33C37.33 613.33 32 608 32 602.67C32 565.33 32 266.67 32 229.33C32 224 36.27 218.67 41.6 218.67C50.24 218.67 119.36 218.67 128 218.67C133.33 218.67 138.67 224 138.67 229.33C138.67 254.29 138.67 379.09 138.67 603.73C135.11 610.13 131.56 613.33 128 613.33Z" id="bfRuuRXKv"></path><path d="M468.27 186.67C426.67 186.67 387.2 204.8 361.6 233.6C361.6 232.11 361.6 220.16 361.6 218.67C361.6 208 350.93 197.33 340.27 197.33C329.6 197.33 244.27 197.33 233.6 197.33C224 197.33 212.27 205.87 212.27 217.6C212.27 257.39 212.27 575.68 212.27 615.46C212.27 627.2 224 634.67 233.6 634.67C245.33 634.67 339.2 634.67 350.93 634.67C360.53 634.67 372.27 627.2 372.27 615.46C372.27 592.42 372.27 408.1 372.27 385.06C372.27 349.86 397.87 322.13 430.93 322.13C448 322.13 464 328.53 475.73 340.27C486.4 349.87 490.67 364.8 490.67 384C490.67 406.93 490.67 590.4 490.67 613.33C490.67 624 501.33 634.67 512 634.67C522.67 634.67 608 634.67 618.67 634.67C629.33 634.67 640 624 640 613.33C640 585.81 640 365.65 640 338.13C640 252.8 574.93 186.67 490.67 186.67C486.19 186.67 470.51 186.67 468.27 186.67ZM617.6 613.33L513.07 613.33C512.43 475.73 512.07 399.29 512 384C512 358.4 505.6 339.2 491.73 325.33C475.73 309.33 454.4 300.8 432 300.8C387.2 301.87 352 338.13 352 385.07C352 400.28 352 476.37 352 613.33L234.67 613.33L234.67 218.67L340.27 218.67L341.33 219.73L341.33 286.93L370.13 258.13C370.77 257.49 371.13 257.14 371.2 257.07C392.53 227.2 429.87 208 469.33 208C471.57 208 489.49 208 491.73 208C563.2 208 618.67 265.6 618.67 338.13C618.67 356.41 618.67 447.79 618.67 612.27L617.6 613.33Z" id="i3A0bLaT6"></path></defs><g><g><g><use xlink:href="#hggI72DFn" opacity="1" fill="#ffffff" fill-opacity="1"></use><g><use xlink:href="#hggI72DFn" opacity="1" fill-opacity="0" stroke="#000000" stroke-width="1" stroke-opacity="0"></use></g></g><g><use xlink:href="#bfRuuRXKv" opacity="1" fill="#ffffff" fill-opacity="1"></use><g><use xlink:href="#bfRuuRXKv" opacity="1" fill-opacity="0" stroke="#000000" stroke-width="1" stroke-opacity="0"></use></g></g><g><use xlink:href="#i3A0bLaT6" opacity="1" fill="#ffffff" fill-opacity="1"></use><g><use xlink:href="#i3A0bLaT6" opacity="1" fill-opacity="0" stroke="#000000" stroke-width="1" stroke-opacity="0"></use></g></g></g></g></svg>